<?xml version="1.0" encoding="UTF-8"?>
<!DOCTYPE svg PUBLIC "-//W3C//DTD SVG 1.1//EN" "http://www.w3.org/Graphics/SVG/1.1/DTD/svg11.dtd">
<svg xmlns="http://www.w3.org/2000/svg" version="1.1" width="64px" height="64px" style="shape-rendering:geometricPrecision; text-rendering:geometricPrecision; image-rendering:optimizeQuality; fill-rule:evenodd; clip-rule:evenodd">
<g><path style="opacity:1" fill="#fafffe" d="M 39.5,7.5 C 34.8333,7.5 30.1667,7.5 25.5,7.5C 27.3972,6.19522 29.7305,5.52856 32.5,5.5C 35.2695,5.52856 37.6028,6.19522 39.5,7.5 Z"/></g>
<g><path style="opacity:1" fill="#fafffe" d="M 25.5,7.5 C 25.5,8.16667 25.5,8.83333 25.5,9.5C 24.1667,9.5 22.8333,9.5 21.5,9.5C 22.1834,7.82351 23.5168,7.15684 25.5,7.5 Z"/></g>
<g><path style="opacity:1" fill="#e9967c" d="M 25.5,7.5 C 30.1667,7.5 34.8333,7.5 39.5,7.5C 39.5,8.16667 39.5,8.83333 39.5,9.5C 34.8333,9.5 30.1667,9.5 25.5,9.5C 25.5,8.83333 25.5,8.16667 25.5,7.5 Z"/></g>
<g><path style="opacity:1" fill="#fafffe" d="M 39.5,7.5 C 41.4832,7.15684 42.8166,7.82351 43.5,9.5C 42.1667,9.5 40.8333,9.5 39.5,9.5C 39.5,8.83333 39.5,8.16667 39.5,7.5 Z"/></g>
<g><path style="opacity:1" fill="#fafffe" d="M 21.5,9.5 C 21.5,10.1667 21.5,10.8333 21.5,11.5C 20.1667,11.5 18.8333,11.5 17.5,11.5C 18.1834,9.82351 19.5168,9.15684 21.5,9.5 Z"/></g>
<g><path style="opacity:1" fill="#e9967c" d="M 21.5,9.5 C 22.8333,9.5 24.1667,9.5 25.5,9.5C 25.5,10.1667 25.5,10.8333 25.5,11.5C 24.1667,11.5 22.8333,11.5 21.5,11.5C 21.5,10.8333 21.5,10.1667 21.5,9.5 Z"/></g>
<g><path style="opacity:1" fill="#f5ae4c" d="M 25.5,9.5 C 30.1667,9.5 34.8333,9.5 39.5,9.5C 39.5,10.1667 39.5,10.8333 39.5,11.5C 34.8333,11.5 30.1667,11.5 25.5,11.5C 25.5,10.8333 25.5,10.1667 25.5,9.5 Z"/></g>
<g><path style="opacity:1" fill="#e9967c" d="M 39.5,9.5 C 40.8333,9.5 42.1667,9.5 43.5,9.5C 43.5,10.1667 43.5,10.8333 43.5,11.5C 42.1667,11.5 40.8333,11.5 39.5,11.5C 39.5,10.8333 39.5,10.1667 39.5,9.5 Z"/></g>
<g><path style="opacity:1" fill="#fafffe" d="M 43.5,9.5 C 45.4832,9.15684 46.8166,9.82351 47.5,11.5C 46.1667,11.5 44.8333,11.5 43.5,11.5C 43.5,10.8333 43.5,10.1667 43.5,9.5 Z"/></g>
<g><path style="opacity:1" fill="#fafffe" d="M 17.5,11.5 C 17.5,12.8333 16.8333,13.5 15.5,13.5C 15.5,12.1667 16.1667,11.5 17.5,11.5 Z"/></g>
<g><path style="opacity:1" fill="#e9967c" d="M 43.5,11.5 C 44.8333,11.5 46.1667,11.5 47.5,11.5C 47.5,12.1667 47.5,12.8333 47.5,13.5C 46.1667,13.5 44.8333,13.5 43.5,13.5C 43.5,12.8333 43.5,12.1667 43.5,11.5 Z"/></g>
<g><path style="opacity:1" fill="#fafffe" d="M 47.5,11.5 C 48.8333,11.5 49.5,12.1667 49.5,13.5C 48.8333,13.5 48.1667,13.5 47.5,13.5C 47.5,12.8333 47.5,12.1667 47.5,11.5 Z"/></g>
<g><path style="opacity:1" fill="#fafffe" d="M 15.5,13.5 C 15.5,14.1667 15.5,14.8333 15.5,15.5C 14.8333,15.5 14.1667,15.5 13.5,15.5C 13.5,14.1667 14.1667,13.5 15.5,13.5 Z"/></g>
<g><path style="opacity:1" fill="#f3a75c" d="M 17.5,11.5 C 18.8333,11.5 20.1667,11.5 21.5,11.5C 22.8333,11.5 24.1667,11.5 25.5,11.5C 23.4726,13.8475 20.806,15.1808 17.5,15.5C 17.8432,17.4832 17.1765,18.8166 15.5,19.5C 15.5,18.1667 15.5,16.8333 15.5,15.5C 15.5,14.8333 15.5,14.1667 15.5,13.5C 16.8333,13.5 17.5,12.8333 17.5,11.5 Z"/></g>
<g><path style="opacity:1" fill="#fed73b" d="M 25.5,11.5 C 30.1667,11.5 34.8333,11.5 39.5,11.5C 40.8333,11.5 42.1667,11.5 43.5,11.5C 43.5,12.1667 43.5,12.8333 43.5,13.5C 43.5,14.1667 43.5,14.8333 43.5,15.5C 42.8333,16.8333 42.1667,18.1667 41.5,19.5C 38.2479,18.6234 34.9146,17.9567 31.5,17.5C 29.5,17.8333 27.5,18.1667 25.5,18.5C 24.3881,19.2652 23.7214,20.2652 23.5,21.5C 20.9179,21.0254 18.9179,21.6921 17.5,23.5C 16.2227,24.6936 15.5561,26.3603 15.5,28.5C 15.5561,30.6397 16.2227,32.3064 17.5,33.5C 17.5,35.5 17.5,37.5 17.5,39.5C 16.8333,39.5 16.1667,39.5 15.5,39.5C 13.7239,34.391 13.0573,29.0577 13.5,23.5C 13.5,22.1667 13.5,20.8333 13.5,19.5C 14.1667,19.5 14.8333,19.5 15.5,19.5C 17.1765,18.8166 17.8432,17.4832 17.5,15.5C 20.806,15.1808 23.4726,13.8475 25.5,11.5 Z"/></g>
<g><path style="opacity:1" fill="#fafffe" d="M 49.5,13.5 C 50.8333,13.5 51.5,14.1667 51.5,15.5C 51.5,14.1667 50.8333,13.5 49.5,13.5 Z"/></g>
<g><path style="opacity:1" fill="#fafffe" d="M 13.5,15.5 C 13.5,16.8333 13.5,18.1667 13.5,19.5C 12.8333,19.5 12.1667,19.5 11.5,19.5C 11.1568,17.5168 11.8235,16.1834 13.5,15.5 Z"/></g>
<g><path style="opacity:1" fill="#ea967c" d="M 13.5,15.5 C 14.1667,15.5 14.8333,15.5 15.5,15.5C 15.5,16.8333 15.5,18.1667 15.5,19.5C 14.8333,19.5 14.1667,19.5 13.5,19.5C 13.5,18.1667 13.5,16.8333 13.5,15.5 Z"/></g>
<g><path style="opacity:1" fill="#fefffe" d="M 43.5,15.5 C 46.6236,15.9657 49.2903,17.299 51.5,19.5C 51.1568,21.4832 51.8235,22.8166 53.5,23.5C 53.5,24.8333 53.5,26.1667 53.5,27.5C 52.2003,28.1079 50.8669,28.7745 49.5,29.5C 48.1331,28.7745 46.7997,28.1079 45.5,27.5C 44.1667,24.8333 42.8333,22.1667 41.5,19.5C 42.1667,18.1667 42.8333,16.8333 43.5,15.5 Z"/></g>
<g><path style="opacity:1" fill="#f0a462" d="M 43.5,13.5 C 44.8333,13.5 46.1667,13.5 47.5,13.5C 48.1667,13.5 48.8333,13.5 49.5,13.5C 49.5,14.8333 50.1667,15.5 51.5,15.5C 51.5,16.8333 51.5,18.1667 51.5,19.5C 49.2903,17.299 46.6236,15.9657 43.5,15.5C 43.5,14.8333 43.5,14.1667 43.5,13.5 Z"/></g>
<g><path style="opacity:1" fill="#fafffe" d="M 51.5,15.5 C 53.1765,16.1834 53.8432,17.5168 53.5,19.5C 52.8333,19.5 52.1667,19.5 51.5,19.5C 51.5,18.1667 51.5,16.8333 51.5,15.5 Z"/></g>
<g><path style="opacity:1" fill="#fafffe" d="M 11.5,19.5 C 11.5,20.8333 11.5,22.1667 11.5,23.5C 10.8333,23.5 10.1667,23.5 9.5,23.5C 9.15684,21.5168 9.82351,20.1834 11.5,19.5 Z"/></g>
<g><path style="opacity:1" fill="#ea967c" d="M 11.5,19.5 C 12.1667,19.5 12.8333,19.5 13.5,19.5C 13.5,20.8333 13.5,22.1667 13.5,23.5C 12.8333,23.5 12.1667,23.5 11.5,23.5C 11.5,22.1667 11.5,20.8333 11.5,19.5 Z"/></g>
<g><path style="opacity:1" fill="#e9967c" d="M 51.5,19.5 C 52.1667,19.5 52.8333,19.5 53.5,19.5C 53.5,20.8333 53.5,22.1667 53.5,23.5C 51.8235,22.8166 51.1568,21.4832 51.5,19.5 Z"/></g>
<g><path style="opacity:1" fill="#fafffe" d="M 53.5,19.5 C 55.1765,20.1834 55.8432,21.5168 55.5,23.5C 54.8333,23.5 54.1667,23.5 53.5,23.5C 53.5,22.1667 53.5,20.8333 53.5,19.5 Z"/></g>
<g><path style="opacity:1" fill="#fefffe" d="M 23.5,21.5 C 24.8333,21.5 25.5,22.1667 25.5,23.5C 22.8333,23.5 20.1667,23.5 17.5,23.5C 18.9179,21.6921 20.9179,21.0254 23.5,21.5 Z"/></g>
<g><path style="opacity:1" fill="#fff64a" d="M 41.5,19.5 C 42.8333,22.1667 44.1667,24.8333 45.5,27.5C 45.8204,30.8984 45.487,34.2317 44.5,37.5C 43.7348,38.6119 42.7348,39.2786 41.5,39.5C 41.5,38.1667 40.8333,37.5 39.5,37.5C 40.069,33.6707 39.4023,30.3373 37.5,27.5C 37.5,26.1667 36.8333,25.5 35.5,25.5C 32.6627,23.5977 29.3293,22.931 25.5,23.5C 25.5,22.1667 24.8333,21.5 23.5,21.5C 23.7214,20.2652 24.3881,19.2652 25.5,18.5C 27.5,18.1667 29.5,17.8333 31.5,17.5C 34.9146,17.9567 38.2479,18.6234 41.5,19.5 Z"/></g>
<g><path style="opacity:1" fill="#fafffe" d="M 9.5,23.5 C 9.5,28.1667 9.5,32.8333 9.5,37.5C 8.19522,35.6028 7.52856,33.2695 7.5,30.5C 7.52856,27.7305 8.19522,25.3972 9.5,23.5 Z"/></g>
<g><path style="opacity:1" fill="#e9967c" d="M 9.5,23.5 C 10.1667,23.5 10.8333,23.5 11.5,23.5C 11.5,28.1667 11.5,32.8333 11.5,37.5C 10.8333,37.5 10.1667,37.5 9.5,37.5C 9.5,32.8333 9.5,28.1667 9.5,23.5 Z"/></g>
<g><path style="opacity:1" fill="#f1a84f" d="M 11.5,23.5 C 12.1667,23.5 12.8333,23.5 13.5,23.5C 13.0573,29.0577 13.7239,34.391 15.5,39.5C 15.5,40.1667 15.5,40.8333 15.5,41.5C 14.1667,41.5 12.8333,41.5 11.5,41.5C 11.5,40.1667 11.5,38.8333 11.5,37.5C 11.5,32.8333 11.5,28.1667 11.5,23.5 Z"/></g>
<g><path style="opacity:1" fill="#fefffe" d="M 17.5,23.5 C 17.5,26.8333 17.5,30.1667 17.5,33.5C 16.2227,32.3064 15.5561,30.6397 15.5,28.5C 15.5561,26.3603 16.2227,24.6936 17.5,23.5 Z"/></g>
<g><path style="opacity:1" fill="#fefffe" d="M 25.5,23.5 C 29.3293,22.931 32.6627,23.5977 35.5,25.5C 32.3019,24.9644 29.6353,25.631 27.5,27.5C 26.1667,27.5 24.8333,27.5 23.5,27.5C 24.1667,26.1667 24.8333,24.8333 25.5,23.5 Z"/></g>
<g><path style="opacity:1" fill="#e9967c" d="M 53.5,23.5 C 54.1667,23.5 54.8333,23.5 55.5,23.5C 55.5,28.1667 55.5,32.8333 55.5,37.5C 54.8333,37.5 54.1667,37.5 53.5,37.5C 53.5,35.5 53.5,33.5 53.5,31.5C 53.5,30.1667 53.5,28.8333 53.5,27.5C 53.5,26.1667 53.5,24.8333 53.5,23.5 Z"/></g>
<g><path style="opacity:1" fill="#fafffe" d="M 55.5,23.5 C 56.8048,25.3972 57.4714,27.7305 57.5,30.5C 57.4714,33.2695 56.8048,35.6028 55.5,37.5C 55.5,32.8333 55.5,28.1667 55.5,23.5 Z"/></g>
<g><path style="opacity:1" fill="#fffe61" d="M 35.5,25.5 C 36.8333,25.5 37.5,26.1667 37.5,27.5C 38.0356,30.6981 37.369,33.3647 35.5,35.5C 34.0821,33.6921 32.0821,33.0254 29.5,33.5C 29.9746,30.9179 29.3079,28.9179 27.5,27.5C 29.6353,25.631 32.3019,24.9644 35.5,25.5 Z"/></g>
<g><path style="opacity:1" fill="#fefffe" d="M 35.5,25.5 C 36.8333,25.5 37.5,26.1667 37.5,27.5C 36.1667,27.5 35.5,26.8333 35.5,25.5 Z"/></g>
<g><path style="opacity:1" fill="#fefffe" d="M 23.5,27.5 C 23.5,30.1667 23.5,32.8333 23.5,35.5C 22.2521,34.6661 21.5854,33.3328 21.5,31.5C 21.5854,29.6672 22.2521,28.3339 23.5,27.5 Z"/></g>
<g><path style="opacity:1" fill="#fffe56" d="M 23.5,27.5 C 24.8333,27.5 26.1667,27.5 27.5,27.5C 27.5,29.5 27.5,31.5 27.5,33.5C 26.1667,33.5 25.5,34.1667 25.5,35.5C 24.8333,35.5 24.1667,35.5 23.5,35.5C 23.5,32.8333 23.5,30.1667 23.5,27.5 Z"/></g>
<g><path style="opacity:1" fill="#fefffe" d="M 27.5,27.5 C 29.3079,28.9179 29.9746,30.9179 29.5,33.5C 28.8333,33.5 28.1667,33.5 27.5,33.5C 27.5,31.5 27.5,29.5 27.5,27.5 Z"/></g>
<g><path style="opacity:1" fill="#fefffe" d="M 37.5,27.5 C 39.4023,30.3373 40.069,33.6707 39.5,37.5C 38.1667,38.1667 36.8333,38.8333 35.5,39.5C 35.5,38.1667 35.5,36.8333 35.5,35.5C 37.369,33.3647 38.0356,30.6981 37.5,27.5 Z"/></g>
<g><path style="opacity:1" fill="#fefffe" d="M 53.5,31.5 C 53.5,33.5 53.5,35.5 53.5,37.5C 52.1667,37.5 51.5,38.1667 51.5,39.5C 47.5674,37.9909 46.9007,35.6576 49.5,32.5C 50.6888,31.5713 52.0222,31.238 53.5,31.5 Z"/></g>
<g><path style="opacity:1" fill="#fefffe" d="M 17.5,33.5 C 18.6935,33.9704 19.3601,34.9704 19.5,36.5C 19.3601,38.0296 18.6935,39.0296 17.5,39.5C 17.5,37.5 17.5,35.5 17.5,33.5 Z"/></g>
<g><path style="opacity:1" fill="#fefffe" d="M 27.5,33.5 C 27.5,34.1667 27.5,34.8333 27.5,35.5C 26.8333,35.5 26.1667,35.5 25.5,35.5C 25.5,34.1667 26.1667,33.5 27.5,33.5 Z"/></g>
<g><path style="opacity:1" fill="#feff5b" d="M 27.5,33.5 C 28.1667,33.5 28.8333,33.5 29.5,33.5C 29.5,34.1667 29.5,34.8333 29.5,35.5C 28.8333,35.5 28.1667,35.5 27.5,35.5C 27.5,34.8333 27.5,34.1667 27.5,33.5 Z"/></g>
<g><path style="opacity:1" fill="#fefffe" d="M 29.5,33.5 C 32.0821,33.0254 34.0821,33.6921 35.5,35.5C 33.5,35.5 31.5,35.5 29.5,35.5C 29.5,34.8333 29.5,34.1667 29.5,33.5 Z"/></g>
<g><path style="opacity:1" fill="#fefffe" d="M 23.5,35.5 C 24.1667,35.5 24.8333,35.5 25.5,35.5C 25.5,36.1667 25.5,36.8333 25.5,37.5C 24.1667,37.5 23.5,36.8333 23.5,35.5 Z"/></g>
<g><path style="opacity:1" fill="#feff51" d="M 25.5,35.5 C 26.1667,35.5 26.8333,35.5 27.5,35.5C 27.5,36.1667 27.5,36.8333 27.5,37.5C 26.8333,37.5 26.1667,37.5 25.5,37.5C 25.5,36.8333 25.5,36.1667 25.5,35.5 Z"/></g>
<g><path style="opacity:1" fill="#fefffe" d="M 27.5,35.5 C 28.1667,35.5 28.8333,35.5 29.5,35.5C 29.5,36.8333 28.8333,37.5 27.5,37.5C 27.5,36.8333 27.5,36.1667 27.5,35.5 Z"/></g>
<g><path style="opacity:1" fill="#fafffe" d="M 9.5,37.5 C 10.1667,37.5 10.8333,37.5 11.5,37.5C 11.5,38.8333 11.5,40.1667 11.5,41.5C 9.82351,40.8166 9.15684,39.4832 9.5,37.5 Z"/></g>
<g><path style="opacity:1" fill="#fffe51" d="M 29.5,35.5 C 31.5,35.5 33.5,35.5 35.5,35.5C 35.5,36.8333 35.5,38.1667 35.5,39.5C 32.8333,39.5 30.1667,39.5 27.5,39.5C 27.5,38.8333 27.5,38.1667 27.5,37.5C 28.8333,37.5 29.5,36.8333 29.5,35.5 Z"/></g>
<g><path style="opacity:1" fill="#fefffe" d="M 39.5,37.5 C 40.8333,37.5 41.5,38.1667 41.5,39.5C 41.9746,42.0821 41.3079,44.0821 39.5,45.5C 39.5,42.8333 39.5,40.1667 39.5,37.5 Z"/></g>
<g><path style="opacity:1" fill="#e9967c" d="M 53.5,37.5 C 53.5,38.8333 53.5,40.1667 53.5,41.5C 52.8333,41.5 52.1667,41.5 51.5,41.5C 51.5,40.8333 51.5,40.1667 51.5,39.5C 51.5,38.1667 52.1667,37.5 53.5,37.5 Z"/></g>
<g><path style="opacity:1" fill="#fafffe" d="M 53.5,37.5 C 54.1667,37.5 54.8333,37.5 55.5,37.5C 55.8432,39.4832 55.1765,40.8166 53.5,41.5C 53.5,40.1667 53.5,38.8333 53.5,37.5 Z"/></g>
<g><path style="opacity:1" fill="#fefffe" d="M 15.5,39.5 C 16.1667,39.5 16.8333,39.5 17.5,39.5C 17.5,40.1667 17.5,40.8333 17.5,41.5C 16.8333,41.5 16.1667,41.5 15.5,41.5C 15.5,40.8333 15.5,40.1667 15.5,39.5 Z"/></g>
<g><path style="opacity:1" fill="#fcfffe" d="M 11.5,41.5 C 12.8333,41.5 14.1667,41.5 15.5,41.5C 14.8333,42.8333 14.1667,44.1667 13.5,45.5C 12.1667,45.5 11.5,44.8333 11.5,43.5C 11.5,42.8333 11.5,42.1667 11.5,41.5 Z"/></g>
<g><path style="opacity:1" fill="#e08d50" d="M 15.5,41.5 C 16.1667,41.5 16.8333,41.5 17.5,41.5C 19.5,42.1667 20.8333,43.5 21.5,45.5C 21.5,46.1667 21.5,46.8333 21.5,47.5C 20.1667,48.1667 18.8333,48.8333 17.5,49.5C 17.5,48.1667 16.8333,47.5 15.5,47.5C 15.5,46.1667 14.8333,45.5 13.5,45.5C 14.1667,44.1667 14.8333,42.8333 15.5,41.5 Z"/></g>
<g><path style="opacity:1" fill="#ffe640" d="M 17.5,23.5 C 20.1667,23.5 22.8333,23.5 25.5,23.5C 24.8333,24.8333 24.1667,26.1667 23.5,27.5C 22.2521,28.3339 21.5854,29.6672 21.5,31.5C 21.5854,33.3328 22.2521,34.6661 23.5,35.5C 23.5,36.8333 24.1667,37.5 25.5,37.5C 25.5,38.8333 26.1667,39.5 27.5,39.5C 28.3339,40.7479 29.6672,41.4146 31.5,41.5C 33.3328,41.4146 34.6661,40.7479 35.5,39.5C 36.8333,38.8333 38.1667,38.1667 39.5,37.5C 39.5,40.1667 39.5,42.8333 39.5,45.5C 36.1667,45.5 32.8333,45.5 29.5,45.5C 29.0296,44.3065 28.0296,43.6399 26.5,43.5C 24.9704,43.6399 23.9704,44.3065 23.5,45.5C 22.8333,45.5 22.1667,45.5 21.5,45.5C 20.8333,43.5 19.5,42.1667 17.5,41.5C 17.5,40.8333 17.5,40.1667 17.5,39.5C 18.6935,39.0296 19.3601,38.0296 19.5,36.5C 19.3601,34.9704 18.6935,33.9704 17.5,33.5C 17.5,30.1667 17.5,26.8333 17.5,23.5 Z"/></g>
<g><path style="opacity:1" fill="#fefffe" d="M 27.5,39.5 C 30.1667,39.5 32.8333,39.5 35.5,39.5C 34.6661,40.7479 33.3328,41.4146 31.5,41.5C 29.6672,41.4146 28.3339,40.7479 27.5,39.5 Z"/></g>
<g><path style="opacity:1" fill="#fefffe" d="M 25.5,37.5 C 26.1667,37.5 26.8333,37.5 27.5,37.5C 27.5,38.1667 27.5,38.8333 27.5,39.5C 26.1667,39.5 25.5,38.8333 25.5,37.5 Z"/></g>
<g><path style="opacity:1" fill="#e9967c" d="M 49.5,41.5 C 50.1667,41.5 50.8333,41.5 51.5,41.5C 51.5,42.8333 51.5,44.1667 51.5,45.5C 50.8333,45.5 50.1667,45.5 49.5,45.5C 49.5,44.1667 49.5,42.8333 49.5,41.5 Z"/></g>
<g><path style="opacity:1" fill="#fafffe" d="M 51.5,41.5 C 52.1667,41.5 52.8333,41.5 53.5,41.5C 53.8432,43.4832 53.1765,44.8166 51.5,45.5C 51.5,44.1667 51.5,42.8333 51.5,41.5 Z"/></g>
<g><path style="opacity:1" fill="#fefffe" d="M 29.5,45.5 C 27.5,45.5 25.5,45.5 23.5,45.5C 23.9704,44.3065 24.9704,43.6399 26.5,43.5C 28.0296,43.6399 29.0296,44.3065 29.5,45.5 Z"/></g>
<g><path style="opacity:1" fill="#fafffe" d="M 13.5,45.5 C 14.8333,45.5 15.5,46.1667 15.5,47.5C 14.1667,47.5 13.5,46.8333 13.5,45.5 Z"/></g>
<g><path style="opacity:1" fill="#fefffe" d="M 21.5,45.5 C 22.1667,45.5 22.8333,45.5 23.5,45.5C 23.5,46.1667 23.5,46.8333 23.5,47.5C 22.8333,47.5 22.1667,47.5 21.5,47.5C 21.5,46.8333 21.5,46.1667 21.5,45.5 Z"/></g>
<g><path style="opacity:1" fill="#f3ab51" d="M 49.5,41.5 C 49.5,42.8333 49.5,44.1667 49.5,45.5C 49.5,46.1667 49.5,46.8333 49.5,47.5C 48.8333,47.5 48.1667,47.5 47.5,47.5C 46.1667,47.5 44.8333,47.5 43.5,47.5C 44.1834,45.8235 45.5168,45.1568 47.5,45.5C 47.1568,43.5168 47.8235,42.1834 49.5,41.5 Z"/></g>
<g><path style="opacity:1" fill="#fafffe" d="M 49.5,45.5 C 50.1667,45.5 50.8333,45.5 51.5,45.5C 51.5,46.8333 50.8333,47.5 49.5,47.5C 49.5,46.8333 49.5,46.1667 49.5,45.5 Z"/></g>
<g><path style="opacity:1" fill="#52366f" d="M 11.5,43.5 C 11.5,44.8333 12.1667,45.5 13.5,45.5C 13.5,46.8333 14.1667,47.5 15.5,47.5C 16.8333,47.5 17.5,48.1667 17.5,49.5C 17.5,50.8333 18.1667,51.5 19.5,51.5C 14.3236,59.6731 9.65692,59.3398 5.5,50.5C 6.45554,47.2152 8.45554,44.8819 11.5,43.5 Z"/></g>
<g><path style="opacity:1" fill="#fafffe" d="M 15.5,47.5 C 16.8333,47.5 17.5,48.1667 17.5,49.5C 16.1667,49.5 15.5,48.8333 15.5,47.5 Z"/></g>
<g><path style="opacity:1" fill="#fcfffe" d="M 21.5,47.5 C 21.5,48.1667 21.5,48.8333 21.5,49.5C 21.5,50.1667 21.5,50.8333 21.5,51.5C 20.8333,51.5 20.1667,51.5 19.5,51.5C 18.1667,51.5 17.5,50.8333 17.5,49.5C 18.8333,48.8333 20.1667,48.1667 21.5,47.5 Z"/></g>
<g><path style="opacity:1" fill="#eba147" d="M 21.5,47.5 C 22.1667,47.5 22.8333,47.5 23.5,47.5C 24.8333,47.5 25.5,48.1667 25.5,49.5C 24.1667,49.5 22.8333,49.5 21.5,49.5C 21.5,48.8333 21.5,48.1667 21.5,47.5 Z"/></g>
<g><path style="opacity:1" fill="#fed13a" d="M 45.5,27.5 C 46.7997,28.1079 48.1331,28.7745 49.5,29.5C 50.8669,28.7745 52.2003,28.1079 53.5,27.5C 53.5,28.8333 53.5,30.1667 53.5,31.5C 52.0222,31.238 50.6888,31.5713 49.5,32.5C 46.9007,35.6576 47.5674,37.9909 51.5,39.5C 51.5,40.1667 51.5,40.8333 51.5,41.5C 50.8333,41.5 50.1667,41.5 49.5,41.5C 47.8235,42.1834 47.1568,43.5168 47.5,45.5C 45.5168,45.1568 44.1834,45.8235 43.5,47.5C 43.5,48.1667 43.5,48.8333 43.5,49.5C 42.1667,49.5 40.8333,49.5 39.5,49.5C 34.8333,49.5 30.1667,49.5 25.5,49.5C 25.5,48.1667 24.8333,47.5 23.5,47.5C 23.5,46.8333 23.5,46.1667 23.5,45.5C 25.5,45.5 27.5,45.5 29.5,45.5C 30.6936,46.7773 32.3603,47.4439 34.5,47.5C 36.6397,47.4439 38.3064,46.7773 39.5,45.5C 41.3079,44.0821 41.9746,42.0821 41.5,39.5C 42.7348,39.2786 43.7348,38.6119 44.5,37.5C 45.487,34.2317 45.8204,30.8984 45.5,27.5 Z"/></g>
<g><path style="opacity:1" fill="#fefffe" d="M 29.5,45.5 C 32.8333,45.5 36.1667,45.5 39.5,45.5C 38.3064,46.7773 36.6397,47.4439 34.5,47.5C 32.3603,47.4439 30.6936,46.7773 29.5,45.5 Z"/></g>
<g><path style="opacity:1" fill="#e9967c" d="M 43.5,47.5 C 44.8333,47.5 46.1667,47.5 47.5,47.5C 47.5,48.1667 47.5,48.8333 47.5,49.5C 46.1667,49.5 44.8333,49.5 43.5,49.5C 43.5,48.8333 43.5,48.1667 43.5,47.5 Z"/></g>
<g><path style="opacity:1" fill="#fafffe" d="M 47.5,47.5 C 48.1667,47.5 48.8333,47.5 49.5,47.5C 49.5,48.8333 48.8333,49.5 47.5,49.5C 47.5,48.8333 47.5,48.1667 47.5,47.5 Z"/></g>
<g><path style="opacity:1" fill="#e9967c" d="M 21.5,49.5 C 22.8333,49.5 24.1667,49.5 25.5,49.5C 25.5,50.1667 25.5,50.8333 25.5,51.5C 24.1667,51.5 22.8333,51.5 21.5,51.5C 21.5,50.8333 21.5,50.1667 21.5,49.5 Z"/></g>
<g><path style="opacity:1" fill="#f3ae4b" d="M 25.5,49.5 C 30.1667,49.5 34.8333,49.5 39.5,49.5C 39.5,50.1667 39.5,50.8333 39.5,51.5C 34.8333,51.5 30.1667,51.5 25.5,51.5C 25.5,50.8333 25.5,50.1667 25.5,49.5 Z"/></g>
<g><path style="opacity:1" fill="#e9967c" d="M 39.5,49.5 C 40.8333,49.5 42.1667,49.5 43.5,49.5C 43.5,50.1667 43.5,50.8333 43.5,51.5C 42.1667,51.5 40.8333,51.5 39.5,51.5C 39.5,50.8333 39.5,50.1667 39.5,49.5 Z"/></g>
<g><path style="opacity:1" fill="#fafffe" d="M 43.5,49.5 C 44.8333,49.5 46.1667,49.5 47.5,49.5C 46.8166,51.1765 45.4832,51.8432 43.5,51.5C 43.5,50.8333 43.5,50.1667 43.5,49.5 Z"/></g>
<g><path style="opacity:1" fill="#fafffe" d="M 21.5,51.5 C 22.8333,51.5 24.1667,51.5 25.5,51.5C 25.5,52.1667 25.5,52.8333 25.5,53.5C 23.5168,53.8432 22.1834,53.1765 21.5,51.5 Z"/></g>
<g><path style="opacity:1" fill="#e9967c" d="M 25.5,51.5 C 30.1667,51.5 34.8333,51.5 39.5,51.5C 39.5,52.1667 39.5,52.8333 39.5,53.5C 34.8333,53.5 30.1667,53.5 25.5,53.5C 25.5,52.8333 25.5,52.1667 25.5,51.5 Z"/></g>
<g><path style="opacity:1" fill="#fafffe" d="M 39.5,51.5 C 40.8333,51.5 42.1667,51.5 43.5,51.5C 42.8166,53.1765 41.4832,53.8432 39.5,53.5C 39.5,52.8333 39.5,52.1667 39.5,51.5 Z"/></g>
<g><path style="opacity:1" fill="#fafffe" d="M 25.5,53.5 C 30.1667,53.5 34.8333,53.5 39.5,53.5C 37.6028,54.8048 35.2695,55.4714 32.5,55.5C 29.7305,55.4714 27.3972,54.8048 25.5,53.5 Z"/></g>
</svg>
